<?xml version="1.0" encoding="UTF-8" standalone="no"?>
<!DOCTYPE svg PUBLIC "-//W3C//DTD SVG 1.1//EN" "http://www.w3.org/Graphics/SVG/1.1/DTD/svg11.dtd">
<svg width="128.00" height="128.00" viewBox="0.00 0.00 120.00 120.00" xmlns="http://www.w3.org/2000/svg" xmlns:xlink="http://www.w3.org/1999/xlink">
<g stroke-linecap="round" id="favicon_のコピー">
<path d="M0.00,0.00 L120.00,0.00 L120.00,120.00 L0.00,120.00 L0.00,0.00 Z" fill="rgb(132, 176, 196)" stroke="rgb(132, 176, 196)" stroke-width="1" stroke-opacity="1.00" stroke-linejoin="miter"/>
<path d="M126.92,64.26 Q126.92,64.26 126.92,64.26 Q136.10,129.62 70.75,138.80 Q70.75,138.80 70.75,138.80 Q5.39,147.99 -3.80,82.63 Q-3.80,82.63 -3.80,82.63 Q-12.98,17.27 52.37,8.09 Q52.37,8.09 52.37,8.09 Q117.73,-1.10 126.92,64.26 Z" fill="#ac35eb" stroke="rgb(172, 53, 235)" stroke-width="3.67" stroke-opacity="1.00" stroke-linejoin="miter"/>
<path d="M43.57,53.68 C50.35,56.78 57.01,56.54 63.56,52.98" fill="rgb(255, 255, 255)" stroke="rgb(255, 255, 255)" stroke-width="3.33" stroke-opacity="1.00" stroke-linejoin="miter"/>
<path d="M68.76,31.33 Q68.76,31.33 68.76,31.33 Q73.07,31.18 73.27,36.92 Q73.27,36.92 73.27,36.92 Q73.47,42.67 69.16,42.82 Q69.16,42.82 69.16,42.82 Q64.85,42.97 64.65,37.23 Q64.65,37.23 64.65,37.23 Q64.45,31.48 68.76,31.33 Z" fill="rgb(255, 255, 255)" stroke="rgb(255, 255, 255)" stroke-width="5.75" stroke-opacity="1.00" stroke-linejoin="miter"/>
<path d="M33.34,32.34 Q33.34,32.34 33.34,32.34 Q37.64,32.19 37.84,37.93 Q37.84,37.93 37.84,37.93 Q38.05,43.67 33.74,43.82 Q33.74,43.82 33.74,43.82 Q29.43,43.97 29.23,38.23 Q29.23,38.23 29.23,38.23 Q29.03,32.49 33.34,32.34 Z" fill="rgb(255, 255, 255)" stroke="rgb(255, 255, 255)" stroke-width="5.75" stroke-opacity="1.00" stroke-linejoin="miter"/>
</g>
</svg>
